{
	"asset":{
		"generator":"Khronos glTF Blender I/O v4.2.60",
		"version":"2.0"
	},
	"extensionsUsed":[
		"KHR_materials_specular",
		"KHR_materials_ior"
	],
	"scene":0,
	"scenes":[
		{
			"name":"Scene",
			"nodes":[
				0,
				1,
				2,
				3,
				4,
				5,
				6,
				7
			]
		}
	],
	"nodes":[
		{
			"mesh":0,
			"name":"Side"
		},
		{
			"mesh":1,
			"name":"Corner"
		},
		{
			"mesh":2,
			"name":"MomentaryButton"
		},
		{
			"mesh":3,
			"name":"ToggleButton"
		},
		{
			"mesh":4,
			"name":"Grip"
		},
		{
			"mesh":5,
			"name":"Empty"
		},
		{
			"mesh":6,
			"name":"Slider"
		},
		{
			"mesh":7,
			"name":"RectButton"
		}
	],
	"materials":[
		{
			"extensions":{
				"KHR_materials_specular":{
					"specularColorFactor":[
						1.4494845867156982,
						1.4494845867156982,
						1.4494845867156982
					]
				},
				"KHR_materials_ior":{
					"ior":1.4500000476837158
				}
			},
			"name":"ProtoKit_Tiles",
			"pbrMetallicRoughness":{
				"baseColorFactor":[
					0.800000011920929,
					0.800000011920929,
					0.800000011920929,
					1
				],
				"metallicFactor":0
			}
		},
		{
			"extensions":{
				"KHR_materials_specular":{
					"specularColorFactor":[
						1.4494845867156982,
						1.4494845867156982,
						1.4494845867156982
					]
				},
				"KHR_materials_ior":{
					"ior":1.4500000476837158
				}
			},
			"name":"ProtoKit_Grip",
			"pbrMetallicRoughness":{
				"baseColorFactor":[
					0.011411616578698158,
					0.011411616578698158,
					0.011411616578698158,
					1
				],
				"metallicFactor":0
			}
		}
	],
	"meshes":[
		{
			"name":"Cube.001",
			"primitives":[
				{
					"attributes":{
						"POSITION":0,
						"NORMAL":1,
						"TEXCOORD_0":2
					},
					"indices":3,
					"material":0
				}
			]
		},
		{
			"name":"Cube",
			"primitives":[
				{
					"attributes":{
						"POSITION":4,
						"NORMAL":5,
						"TEXCOORD_0":6
					},
					"indices":7,
					"material":0
				}
			]
		},
		{
			"name":"Cube.002",
			"primitives":[
				{
					"attributes":{
						"POSITION":8,
						"NORMAL":9,
						"TEXCOORD_0":10
					},
					"indices":11,
					"material":0
				}
			]
		},
		{
			"name":"Cube.004",
			"primitives":[
				{
					"attributes":{
						"POSITION":12,
						"NORMAL":13,
						"TEXCOORD_0":14
					},
					"indices":15,
					"material":0
				}
			]
		},
		{
			"name":"Cube.003",
			"primitives":[
				{
					"attributes":{
						"POSITION":16,
						"NORMAL":17,
						"TEXCOORD_0":18
					},
					"indices":19,
					"material":0
				},
				{
					"attributes":{
						"POSITION":20,
						"NORMAL":21,
						"TEXCOORD_0":22
					},
					"indices":23,
					"material":1
				}
			]
		},
		{
			"name":"Cube.006",
			"primitives":[
				{
					"attributes":{
						"POSITION":24,
						"NORMAL":25,
						"TEXCOORD_0":26
					},
					"indices":27,
					"material":0
				}
			]
		},
		{
			"name":"Cube.011",
			"primitives":[
				{
					"attributes":{
						"POSITION":28,
						"NORMAL":29,
						"TEXCOORD_0":30
					},
					"indices":31,
					"material":0
				}
			]
		},
		{
			"name":"Cube.007",
			"primitives":[
				{
					"attributes":{
						"POSITION":32,
						"NORMAL":33,
						"TEXCOORD_0":34
					},
					"indices":35,
					"material":0
				}
			]
		}
	],
	"accessors":[
		{
			"bufferView":0,
			"componentType":5126,
			"count":58,
			"max":[
				0.019999999552965164,
				0.009999999776482582,
				0.019999999552965164
			],
			"min":[
				-0.019999999552965164,
				-8.742277457507441e-10,
				-0.019999999552965164
			],
			"type":"VEC3"
		},
		{
			"bufferView":1,
			"componentType":5126,
			"count":58,
			"type":"VEC3"
		},
		{
			"bufferView":2,
			"componentType":5126,
			"count":58,
			"type":"VEC2"
		},
		{
			"bufferView":3,
			"componentType":5123,
			"count":132,
			"type":"SCALAR"
		},
		{
			"bufferView":4,
			"componentType":5126,
			"count":278,
			"max":[
				0.019999999552965164,
				0.010000000707805157,
				0.019999999552965164
			],
			"min":[
				-0.019999999552965164,
				-8.65485461076787e-10,
				-0.019999999552965164
			],
			"type":"VEC3"
		},
		{
			"bufferView":5,
			"componentType":5126,
			"count":278,
			"type":"VEC3"
		},
		{
			"bufferView":6,
			"componentType":5126,
			"count":278,
			"type":"VEC2"
		},
		{
			"bufferView":7,
			"componentType":5123,
			"count":1140,
			"type":"SCALAR"
		},
		{
			"bufferView":8,
			"componentType":5126,
			"count":1231,
			"max":[
				0.019999999552965164,
				0.010000007227063179,
				0.019999999552965164
			],
			"min":[
				-0.020000003278255463,
				-7.393485823570245e-09,
				-0.019999999552965164
			],
			"type":"VEC3"
		},
		{
			"bufferView":9,
			"componentType":5126,
			"count":1231,
			"type":"VEC3"
		},
		{
			"bufferView":10,
			"componentType":5126,
			"count":1231,
			"type":"VEC2"
		},
		{
			"bufferView":11,
			"componentType":5123,
			"count":2682,
			"type":"SCALAR"
		},
		{
			"bufferView":12,
			"componentType":5126,
			"count":264,
			"max":[
				0.019999999552965164,
				0.009999999776482582,
				0.019999999552965164
			],
			"min":[
				-0.019999999552965164,
				0,
				-0.019999999552965164
			],
			"type":"VEC3"
		},
		{
			"bufferView":13,
			"componentType":5126,
			"count":264,
			"type":"VEC3"
		},
		{
			"bufferView":14,
			"componentType":5126,
			"count":264,
			"type":"VEC2"
		},
		{
			"bufferView":15,
			"componentType":5123,
			"count":978,
			"type":"SCALAR"
		},
		{
			"bufferView":16,
			"componentType":5126,
			"count":256,
			"max":[
				0.019999999552965164,
				0.009999999776482582,
				0.019999999552965164
			],
			"min":[
				-0.019999999552965164,
				-8.742277457507441e-10,
				-0.019999999552965164
			],
			"type":"VEC3"
		},
		{
			"bufferView":17,
			"componentType":5126,
			"count":256,
			"type":"VEC3"
		},
		{
			"bufferView":18,
			"componentType":5126,
			"count":256,
			"type":"VEC2"
		},
		{
			"bufferView":19,
			"componentType":5123,
			"count":726,
			"type":"SCALAR"
		},
		{
			"bufferView":20,
			"componentType":5126,
			"count":254,
			"max":[
				0.016412679105997086,
				0.010494427755475044,
				0.020439432933926582
			],
			"min":[
				-0.01641327142715454,
				0.002113950438797474,
				-0.011455221101641655
			],
			"type":"VEC3"
		},
		{
			"bufferView":21,
			"componentType":5126,
			"count":254,
			"type":"VEC3"
		},
		{
			"bufferView":22,
			"componentType":5126,
			"count":254,
			"type":"VEC2"
		},
		{
			"bufferView":23,
			"componentType":5123,
			"count":414,
			"type":"SCALAR"
		},
		{
			"bufferView":24,
			"componentType":5126,
			"count":24,
			"max":[
				0.019999999552965164,
				0.009999999776482582,
				0.019999999552965164
			],
			"min":[
				-0.019999999552965164,
				-2.98023217215615e-10,
				-0.019999999552965164
			],
			"type":"VEC3"
		},
		{
			"bufferView":25,
			"componentType":5126,
			"count":24,
			"type":"VEC3"
		},
		{
			"bufferView":26,
			"componentType":5126,
			"count":24,
			"type":"VEC2"
		},
		{
			"bufferView":27,
			"componentType":5123,
			"count":36,
			"type":"SCALAR"
		},
		{
			"bufferView":28,
			"componentType":5126,
			"count":536,
			"max":[
				0.019999999552965164,
				0.010000007227063179,
				0.019999999552965164
			],
			"min":[
				-0.020000003278255463,
				-5.645030221046454e-09,
				-0.06000000238418579
			],
			"type":"VEC3"
		},
		{
			"bufferView":29,
			"componentType":5126,
			"count":536,
			"type":"VEC3"
		},
		{
			"bufferView":30,
			"componentType":5126,
			"count":536,
			"type":"VEC2"
		},
		{
			"bufferView":31,
			"componentType":5123,
			"count":1338,
			"type":"SCALAR"
		},
		{
			"bufferView":32,
			"componentType":5126,
			"count":180,
			"max":[
				0.019999999552965164,
				0.010000697337090969,
				0.019999999552965164
			],
			"min":[
				-0.019999999552965164,
				-2.98023217215615e-10,
				-0.019999999552965164
			],
			"type":"VEC3"
		},
		{
			"bufferView":33,
			"componentType":5126,
			"count":180,
			"type":"VEC3"
		},
		{
			"bufferView":34,
			"componentType":5126,
			"count":180,
			"type":"VEC2"
		},
		{
			"bufferView":35,
			"componentType":5123,
			"count":534,
			"type":"SCALAR"
		}
	],
	"bufferViews":[
		{
			"buffer":0,
			"byteLength":696,
			"byteOffset":0,
			"target":34962
		},
		{
			"buffer":0,
			"byteLength":696,
			"byteOffset":696,
			"target":34962
		},
		{
			"buffer":0,
			"byteLength":464,
			"byteOffset":1392,
			"target":34962
		},
		{
			"buffer":0,
			"byteLength":264,
			"byteOffset":1856,
			"target":34963
		},
		{
			"buffer":0,
			"byteLength":3336,
			"byteOffset":2120,
			"target":34962
		},
		{
			"buffer":0,
			"byteLength":3336,
			"byteOffset":5456,
			"target":34962
		},
		{
			"buffer":0,
			"byteLength":2224,
			"byteOffset":8792,
			"target":34962
		},
		{
			"buffer":0,
			"byteLength":2280,
			"byteOffset":11016,
			"target":34963
		},
		{
			"buffer":0,
			"byteLength":14772,
			"byteOffset":13296,
			"target":34962
		},
		{
			"buffer":0,
			"byteLength":14772,
			"byteOffset":28068,
			"target":34962
		},
		{
			"buffer":0,
			"byteLength":9848,
			"byteOffset":42840,
			"target":34962
		},
		{
			"buffer":0,
			"byteLength":5364,
			"byteOffset":52688,
			"target":34963
		},
		{
			"buffer":0,
			"byteLength":3168,
			"byteOffset":58052,
			"target":34962
		},
		{
			"buffer":0,
			"byteLength":3168,
			"byteOffset":61220,
			"target":34962
		},
		{
			"buffer":0,
			"byteLength":2112,
			"byteOffset":64388,
			"target":34962
		},
		{
			"buffer":0,
			"byteLength":1956,
			"byteOffset":66500,
			"target":34963
		},
		{
			"buffer":0,
			"byteLength":3072,
			"byteOffset":68456,
			"target":34962
		},
		{
			"buffer":0,
			"byteLength":3072,
			"byteOffset":71528,
			"target":34962
		},
		{
			"buffer":0,
			"byteLength":2048,
			"byteOffset":74600,
			"target":34962
		},
		{
			"buffer":0,
			"byteLength":1452,
			"byteOffset":76648,
			"target":34963
		},
		{
			"buffer":0,
			"byteLength":3048,
			"byteOffset":78100,
			"target":34962
		},
		{
			"buffer":0,
			"byteLength":3048,
			"byteOffset":81148,
			"target":34962
		},
		{
			"buffer":0,
			"byteLength":2032,
			"byteOffset":84196,
			"target":34962
		},
		{
			"buffer":0,
			"byteLength":828,
			"byteOffset":86228,
			"target":34963
		},
		{
			"buffer":0,
			"byteLength":288,
			"byteOffset":87056,
			"target":34962
		},
		{
			"buffer":0,
			"byteLength":288,
			"byteOffset":87344,
			"target":34962
		},
		{
			"buffer":0,
			"byteLength":192,
			"byteOffset":87632,
			"target":34962
		},
		{
			"buffer":0,
			"byteLength":72,
			"byteOffset":87824,
			"target":34963
		},
		{
			"buffer":0,
			"byteLength":6432,
			"byteOffset":87896,
			"target":34962
		},
		{
			"buffer":0,
			"byteLength":6432,
			"byteOffset":94328,
			"target":34962
		},
		{
			"buffer":0,
			"byteLength":4288,
			"byteOffset":100760,
			"target":34962
		},
		{
			"buffer":0,
			"byteLength":2676,
			"byteOffset":105048,
			"target":34963
		},
		{
			"buffer":0,
			"byteLength":2160,
			"byteOffset":107724,
			"target":34962
		},
		{
			"buffer":0,
			"byteLength":2160,
			"byteOffset":109884,
			"target":34962
		},
		{
			"buffer":0,
			"byteLength":1440,
			"byteOffset":112044,
			"target":34962
		},
		{
			"buffer":0,
			"byteLength":1068,
			"byteOffset":113484,
			"target":34963
		}
	],
	"buffers":[
		{
			"byteLength":114552,
			"uri":"ProKit.bin"
		}
	]
}
