{
	"asset":{
		"generator":"Khronos glTF Blender I/O v4.2.60",
		"version":"2.0"
	},
	"extensionsUsed":[
		"KHR_materials_specular",
		"KHR_materials_ior"
	],
	"scene":0,
	"scenes":[
		{
			"name":"Scene",
			"nodes":[
				0,
				1,
				2,
				3,
				4,
				5,
				6,
				7,
				8
			]
		}
	],
	"nodes":[
		{
			"mesh":0,
			"name":"Side"
		},
		{
			"mesh":1,
			"name":"Corner"
		},
		{
			"mesh":2,
			"name":"MomentaryButton"
		},
		{
			"mesh":3,
			"name":"ToggleButton"
		},
		{
			"mesh":4,
			"name":"Grip"
		},
		{
			"mesh":5,
			"name":"Empty"
		},
		{
			"mesh":6,
			"name":"HBar"
		},
		{
			"mesh":7,
			"name":"VBar",
			"rotation":[
				0,
				-0.7071068286895752,
				0,
				0.7071068286895752
			]
		},
		{
			"mesh":8,
			"name":"RectButton"
		}
	],
	"materials":[
		{
			"extensions":{
				"KHR_materials_specular":{
					"specularColorFactor":[
						1.4494845867156982,
						1.4494845867156982,
						1.4494845867156982
					]
				},
				"KHR_materials_ior":{
					"ior":1.4500000476837158
				}
			},
			"name":"ProtoKit_Tiles",
			"pbrMetallicRoughness":{
				"baseColorFactor":[
					0.800000011920929,
					0.800000011920929,
					0.800000011920929,
					1
				],
				"metallicFactor":0
			}
		},
		{
			"doubleSided":true,
			"extensions":{
				"KHR_materials_specular":{
					"specularColorFactor":[
						1.4494845867156982,
						1.4494845867156982,
						1.4494845867156982
					]
				},
				"KHR_materials_ior":{
					"ior":1.4500000476837158
				}
			},
			"name":"ProtoKit_Grip",
			"pbrMetallicRoughness":{
				"baseColorFactor":[
					0.011411616578698158,
					0.011411616578698158,
					0.011411616578698158,
					1
				],
				"metallicFactor":0
			}
		}
	],
	"meshes":[
		{
			"name":"Cube.001",
			"primitives":[
				{
					"attributes":{
						"POSITION":0,
						"NORMAL":1,
						"TEXCOORD_0":2
					},
					"indices":3,
					"material":0
				}
			]
		},
		{
			"name":"Cube",
			"primitives":[
				{
					"attributes":{
						"POSITION":4,
						"NORMAL":5,
						"TEXCOORD_0":6
					},
					"indices":7,
					"material":0
				}
			]
		},
		{
			"name":"Cube.002",
			"primitives":[
				{
					"attributes":{
						"POSITION":8,
						"NORMAL":9,
						"TEXCOORD_0":10
					},
					"indices":11,
					"material":0
				}
			]
		},
		{
			"name":"Cube.004",
			"primitives":[
				{
					"attributes":{
						"POSITION":12,
						"NORMAL":13,
						"TEXCOORD_0":14
					},
					"indices":15,
					"material":0
				}
			]
		},
		{
			"name":"Cube.003",
			"primitives":[
				{
					"attributes":{
						"POSITION":16,
						"NORMAL":17,
						"TEXCOORD_0":18
					},
					"indices":19,
					"material":0
				},
				{
					"attributes":{
						"POSITION":20,
						"NORMAL":21,
						"TEXCOORD_0":22
					},
					"indices":23,
					"material":1
				}
			]
		},
		{
			"name":"Cube.006",
			"primitives":[
				{
					"attributes":{
						"POSITION":24,
						"NORMAL":25,
						"TEXCOORD_0":26
					},
					"indices":27,
					"material":0
				}
			]
		},
		{
			"name":"Cube.011",
			"primitives":[
				{
					"attributes":{
						"POSITION":28,
						"NORMAL":29,
						"TEXCOORD_0":30
					},
					"indices":31,
					"material":0
				}
			]
		},
		{
			"name":"Cube.013",
			"primitives":[
				{
					"attributes":{
						"POSITION":32,
						"NORMAL":33,
						"TEXCOORD_0":34
					},
					"indices":31,
					"material":0
				}
			]
		},
		{
			"name":"Cube.007",
			"primitives":[
				{
					"attributes":{
						"POSITION":35,
						"NORMAL":36,
						"TEXCOORD_0":37
					},
					"indices":38,
					"material":0
				}
			]
		}
	],
	"accessors":[
		{
			"bufferView":0,
			"componentType":5126,
			"count":56,
			"max":[
				0.019999999552965164,
				0.009999999776482582,
				0.019999999552965164
			],
			"min":[
				-0.019999999552965164,
				-8.742277457507441e-10,
				-0.019999999552965164
			],
			"type":"VEC3"
		},
		{
			"bufferView":1,
			"componentType":5126,
			"count":56,
			"type":"VEC3"
		},
		{
			"bufferView":2,
			"componentType":5126,
			"count":56,
			"type":"VEC2"
		},
		{
			"bufferView":3,
			"componentType":5123,
			"count":132,
			"type":"SCALAR"
		},
		{
			"bufferView":4,
			"componentType":5126,
			"count":245,
			"max":[
				0.019999999552965164,
				0.010000000707805157,
				0.019999999552965164
			],
			"min":[
				-0.019999999552965164,
				-8.65485461076787e-10,
				-0.019999999552965164
			],
			"type":"VEC3"
		},
		{
			"bufferView":5,
			"componentType":5126,
			"count":245,
			"type":"VEC3"
		},
		{
			"bufferView":6,
			"componentType":5126,
			"count":245,
			"type":"VEC2"
		},
		{
			"bufferView":7,
			"componentType":5123,
			"count":1140,
			"type":"SCALAR"
		},
		{
			"bufferView":8,
			"componentType":5126,
			"count":1172,
			"max":[
				0.019999999552965164,
				0.010000007227063179,
				0.019999999552965164
			],
			"min":[
				-0.020000003278255463,
				-7.393485823570245e-09,
				-0.019999999552965164
			],
			"type":"VEC3"
		},
		{
			"bufferView":9,
			"componentType":5126,
			"count":1172,
			"type":"VEC3"
		},
		{
			"bufferView":10,
			"componentType":5126,
			"count":1172,
			"type":"VEC2"
		},
		{
			"bufferView":11,
			"componentType":5123,
			"count":2682,
			"type":"SCALAR"
		},
		{
			"bufferView":12,
			"componentType":5126,
			"count":216,
			"max":[
				0.019999999552965164,
				0.009999999776482582,
				0.019999999552965164
			],
			"min":[
				-0.019999999552965164,
				0,
				-0.019999999552965164
			],
			"type":"VEC3"
		},
		{
			"bufferView":13,
			"componentType":5126,
			"count":216,
			"type":"VEC3"
		},
		{
			"bufferView":14,
			"componentType":5126,
			"count":216,
			"type":"VEC2"
		},
		{
			"bufferView":15,
			"componentType":5123,
			"count":978,
			"type":"SCALAR"
		},
		{
			"bufferView":16,
			"componentType":5126,
			"count":163,
			"max":[
				0.019999999552965164,
				0.009999999776482582,
				0.019999999552965164
			],
			"min":[
				-0.019999999552965164,
				-8.742277457507441e-10,
				-0.019999999552965164
			],
			"type":"VEC3"
		},
		{
			"bufferView":17,
			"componentType":5126,
			"count":163,
			"type":"VEC3"
		},
		{
			"bufferView":18,
			"componentType":5126,
			"count":163,
			"type":"VEC2"
		},
		{
			"bufferView":19,
			"componentType":5123,
			"count":564,
			"type":"SCALAR"
		},
		{
			"bufferView":20,
			"componentType":5126,
			"count":74,
			"max":[
				0.016412679105997086,
				0.010494427755475044,
				0.020439432933926582
			],
			"min":[
				-0.01641327142715454,
				0.002113950438797474,
				-0.011455221101641655
			],
			"type":"VEC3"
		},
		{
			"bufferView":21,
			"componentType":5126,
			"count":74,
			"type":"VEC3"
		},
		{
			"bufferView":22,
			"componentType":5126,
			"count":74,
			"type":"VEC2"
		},
		{
			"bufferView":23,
			"componentType":5123,
			"count":288,
			"type":"SCALAR"
		},
		{
			"bufferView":24,
			"componentType":5126,
			"count":24,
			"max":[
				0.019999999552965164,
				0.009999999776482582,
				0.019999999552965164
			],
			"min":[
				-0.019999999552965164,
				-2.98023217215615e-10,
				-0.019999999552965164
			],
			"type":"VEC3"
		},
		{
			"bufferView":25,
			"componentType":5126,
			"count":24,
			"type":"VEC3"
		},
		{
			"bufferView":26,
			"componentType":5126,
			"count":24,
			"type":"VEC2"
		},
		{
			"bufferView":27,
			"componentType":5123,
			"count":36,
			"type":"SCALAR"
		},
		{
			"bufferView":28,
			"componentType":5126,
			"count":618,
			"max":[
				0.019999999552965164,
				0.010000007227063179,
				0.019999999552965164
			],
			"min":[
				-0.020000003278255463,
				-5.645030221046454e-09,
				-0.06000000238418579
			],
			"type":"VEC3"
		},
		{
			"bufferView":29,
			"componentType":5126,
			"count":618,
			"type":"VEC3"
		},
		{
			"bufferView":30,
			"componentType":5126,
			"count":618,
			"type":"VEC2"
		},
		{
			"bufferView":31,
			"componentType":5123,
			"count":1896,
			"type":"SCALAR"
		},
		{
			"bufferView":32,
			"componentType":5126,
			"count":618,
			"max":[
				0.019999999552965164,
				0.010000007227063179,
				0.019999999552965164
			],
			"min":[
				-0.020000003278255463,
				-5.645030221046454e-09,
				-0.06000000238418579
			],
			"type":"VEC3"
		},
		{
			"bufferView":33,
			"componentType":5126,
			"count":618,
			"type":"VEC3"
		},
		{
			"bufferView":34,
			"componentType":5126,
			"count":618,
			"type":"VEC2"
		},
		{
			"bufferView":35,
			"componentType":5126,
			"count":163,
			"max":[
				0.019999999552965164,
				0.010514022782444954,
				0.019999999552965164
			],
			"min":[
				-0.019999999552965164,
				-2.98023217215615e-10,
				-0.019999999552965164
			],
			"type":"VEC3"
		},
		{
			"bufferView":36,
			"componentType":5126,
			"count":163,
			"type":"VEC3"
		},
		{
			"bufferView":37,
			"componentType":5126,
			"count":163,
			"type":"VEC2"
		},
		{
			"bufferView":38,
			"componentType":5123,
			"count":534,
			"type":"SCALAR"
		}
	],
	"bufferViews":[
		{
			"buffer":0,
			"byteLength":672,
			"byteOffset":0,
			"target":34962
		},
		{
			"buffer":0,
			"byteLength":672,
			"byteOffset":672,
			"target":34962
		},
		{
			"buffer":0,
			"byteLength":448,
			"byteOffset":1344,
			"target":34962
		},
		{
			"buffer":0,
			"byteLength":264,
			"byteOffset":1792,
			"target":34963
		},
		{
			"buffer":0,
			"byteLength":2940,
			"byteOffset":2056,
			"target":34962
		},
		{
			"buffer":0,
			"byteLength":2940,
			"byteOffset":4996,
			"target":34962
		},
		{
			"buffer":0,
			"byteLength":1960,
			"byteOffset":7936,
			"target":34962
		},
		{
			"buffer":0,
			"byteLength":2280,
			"byteOffset":9896,
			"target":34963
		},
		{
			"buffer":0,
			"byteLength":14064,
			"byteOffset":12176,
			"target":34962
		},
		{
			"buffer":0,
			"byteLength":14064,
			"byteOffset":26240,
			"target":34962
		},
		{
			"buffer":0,
			"byteLength":9376,
			"byteOffset":40304,
			"target":34962
		},
		{
			"buffer":0,
			"byteLength":5364,
			"byteOffset":49680,
			"target":34963
		},
		{
			"buffer":0,
			"byteLength":2592,
			"byteOffset":55044,
			"target":34962
		},
		{
			"buffer":0,
			"byteLength":2592,
			"byteOffset":57636,
			"target":34962
		},
		{
			"buffer":0,
			"byteLength":1728,
			"byteOffset":60228,
			"target":34962
		},
		{
			"buffer":0,
			"byteLength":1956,
			"byteOffset":61956,
			"target":34963
		},
		{
			"buffer":0,
			"byteLength":1956,
			"byteOffset":63912,
			"target":34962
		},
		{
			"buffer":0,
			"byteLength":1956,
			"byteOffset":65868,
			"target":34962
		},
		{
			"buffer":0,
			"byteLength":1304,
			"byteOffset":67824,
			"target":34962
		},
		{
			"buffer":0,
			"byteLength":1128,
			"byteOffset":69128,
			"target":34963
		},
		{
			"buffer":0,
			"byteLength":888,
			"byteOffset":70256,
			"target":34962
		},
		{
			"buffer":0,
			"byteLength":888,
			"byteOffset":71144,
			"target":34962
		},
		{
			"buffer":0,
			"byteLength":592,
			"byteOffset":72032,
			"target":34962
		},
		{
			"buffer":0,
			"byteLength":576,
			"byteOffset":72624,
			"target":34963
		},
		{
			"buffer":0,
			"byteLength":288,
			"byteOffset":73200,
			"target":34962
		},
		{
			"buffer":0,
			"byteLength":288,
			"byteOffset":73488,
			"target":34962
		},
		{
			"buffer":0,
			"byteLength":192,
			"byteOffset":73776,
			"target":34962
		},
		{
			"buffer":0,
			"byteLength":72,
			"byteOffset":73968,
			"target":34963
		},
		{
			"buffer":0,
			"byteLength":7416,
			"byteOffset":74040,
			"target":34962
		},
		{
			"buffer":0,
			"byteLength":7416,
			"byteOffset":81456,
			"target":34962
		},
		{
			"buffer":0,
			"byteLength":4944,
			"byteOffset":88872,
			"target":34962
		},
		{
			"buffer":0,
			"byteLength":3792,
			"byteOffset":93816,
			"target":34963
		},
		{
			"buffer":0,
			"byteLength":7416,
			"byteOffset":97608,
			"target":34962
		},
		{
			"buffer":0,
			"byteLength":7416,
			"byteOffset":105024,
			"target":34962
		},
		{
			"buffer":0,
			"byteLength":4944,
			"byteOffset":112440,
			"target":34962
		},
		{
			"buffer":0,
			"byteLength":1956,
			"byteOffset":117384,
			"target":34962
		},
		{
			"buffer":0,
			"byteLength":1956,
			"byteOffset":119340,
			"target":34962
		},
		{
			"buffer":0,
			"byteLength":1304,
			"byteOffset":121296,
			"target":34962
		},
		{
			"buffer":0,
			"byteLength":1068,
			"byteOffset":122600,
			"target":34963
		}
	],
	"buffers":[
		{
			"byteLength":123668,
			"uri":"ProKit.bin"
		}
	]
}
