{
	"asset":{
		"generator":"Khronos glTF Blender I/O v4.0.44",
		"version":"2.0"
	},
	"extensionsUsed":[
		"KHR_materials_specular",
		"KHR_materials_ior"
	],
	"scene":0,
	"scenes":[
		{
			"name":"Scene",
			"nodes":[
				0,
				1,
				2,
				3,
				4,
				5
			]
		}
	],
	"nodes":[
		{
			"mesh":0,
			"name":"Side"
		},
		{
			"mesh":1,
			"name":"Corner"
		},
		{
			"mesh":2,
			"name":"MomentaryButton"
		},
		{
			"mesh":3,
			"name":"ToggleButton"
		},
		{
			"mesh":4,
			"name":"Grip"
		},
		{
			"mesh":5,
			"name":"Empty"
		}
	],
	"materials":[
		{
			"extensions":{
				"KHR_materials_specular":{
					"specularColorFactor":[
						1.4494845867156982,
						1.4494845867156982,
						1.4494845867156982
					]
				},
				"KHR_materials_ior":{
					"ior":1.4500000476837158
				}
			},
			"name":"ProtoKit_Tiles",
			"pbrMetallicRoughness":{
				"baseColorFactor":[
					0.800000011920929,
					0.800000011920929,
					0.800000011920929,
					1
				],
				"metallicFactor":0
			}
		},
		{
			"doubleSided":true,
			"extensions":{
				"KHR_materials_specular":{
					"specularColorFactor":[
						1.4494845867156982,
						1.4494845867156982,
						1.4494845867156982
					]
				},
				"KHR_materials_ior":{
					"ior":1.4500000476837158
				}
			},
			"name":"ProtoKit_Grip",
			"pbrMetallicRoughness":{
				"baseColorFactor":[
					0.011411616578698158,
					0.011411616578698158,
					0.011411616578698158,
					1
				],
				"metallicFactor":0
			}
		}
	],
	"meshes":[
		{
			"name":"Cube.001",
			"primitives":[
				{
					"attributes":{
						"POSITION":0,
						"NORMAL":1,
						"TEXCOORD_0":2
					},
					"indices":3,
					"material":0
				}
			]
		},
		{
			"name":"Cube",
			"primitives":[
				{
					"attributes":{
						"POSITION":4,
						"NORMAL":5,
						"TEXCOORD_0":6
					},
					"indices":7,
					"material":0
				}
			]
		},
		{
			"name":"Cube.002",
			"primitives":[
				{
					"attributes":{
						"POSITION":8,
						"NORMAL":9,
						"TEXCOORD_0":10
					},
					"indices":11,
					"material":0
				}
			]
		},
		{
			"name":"Cube.004",
			"primitives":[
				{
					"attributes":{
						"POSITION":12,
						"NORMAL":13,
						"TEXCOORD_0":14
					},
					"indices":15,
					"material":0
				}
			]
		},
		{
			"name":"Cube.003",
			"primitives":[
				{
					"attributes":{
						"POSITION":16,
						"NORMAL":17,
						"TEXCOORD_0":18
					},
					"indices":19,
					"material":0
				},
				{
					"attributes":{
						"POSITION":20,
						"NORMAL":21,
						"TEXCOORD_0":22
					},
					"indices":23,
					"material":1
				}
			]
		},
		{
			"name":"Cube.006",
			"primitives":[
				{
					"attributes":{
						"POSITION":24,
						"NORMAL":25,
						"TEXCOORD_0":26
					},
					"indices":27,
					"material":0
				}
			]
		}
	],
	"accessors":[
		{
			"bufferView":0,
			"componentType":5126,
			"count":58,
			"max":[
				0.019999999552965164,
				0.009999999776482582,
				0.019999999552965164
			],
			"min":[
				-0.019999999552965164,
				-8.742277457507441e-10,
				-0.019999999552965164
			],
			"type":"VEC3"
		},
		{
			"bufferView":1,
			"componentType":5126,
			"count":58,
			"type":"VEC3"
		},
		{
			"bufferView":2,
			"componentType":5126,
			"count":58,
			"type":"VEC2"
		},
		{
			"bufferView":3,
			"componentType":5123,
			"count":132,
			"type":"SCALAR"
		},
		{
			"bufferView":4,
			"componentType":5126,
			"count":245,
			"max":[
				0.019999999552965164,
				0.010000000707805157,
				0.019999999552965164
			],
			"min":[
				-0.019999999552965164,
				-8.65485461076787e-10,
				-0.019999999552965164
			],
			"type":"VEC3"
		},
		{
			"bufferView":5,
			"componentType":5126,
			"count":245,
			"type":"VEC3"
		},
		{
			"bufferView":6,
			"componentType":5126,
			"count":245,
			"type":"VEC2"
		},
		{
			"bufferView":7,
			"componentType":5123,
			"count":1140,
			"type":"SCALAR"
		},
		{
			"bufferView":8,
			"componentType":5126,
			"count":1172,
			"max":[
				0.019999999552965164,
				0.010000007227063179,
				0.019999999552965164
			],
			"min":[
				-0.020000003278255463,
				-7.393485823570245e-09,
				-0.019999999552965164
			],
			"type":"VEC3"
		},
		{
			"bufferView":9,
			"componentType":5126,
			"count":1172,
			"type":"VEC3"
		},
		{
			"bufferView":10,
			"componentType":5126,
			"count":1172,
			"type":"VEC2"
		},
		{
			"bufferView":11,
			"componentType":5123,
			"count":2682,
			"type":"SCALAR"
		},
		{
			"bufferView":12,
			"componentType":5126,
			"count":216,
			"max":[
				0.019999999552965164,
				0.009999999776482582,
				0.019999999552965164
			],
			"min":[
				-0.019999999552965164,
				0,
				-0.019999999552965164
			],
			"type":"VEC3"
		},
		{
			"bufferView":13,
			"componentType":5126,
			"count":216,
			"type":"VEC3"
		},
		{
			"bufferView":14,
			"componentType":5126,
			"count":216,
			"type":"VEC2"
		},
		{
			"bufferView":15,
			"componentType":5123,
			"count":978,
			"type":"SCALAR"
		},
		{
			"bufferView":16,
			"componentType":5126,
			"count":221,
			"max":[
				0.019999999552965164,
				0.009999999776482582,
				0.019999999552965164
			],
			"min":[
				-0.019999999552965164,
				-8.742277457507441e-10,
				-0.019999999552965164
			],
			"type":"VEC3"
		},
		{
			"bufferView":17,
			"componentType":5126,
			"count":221,
			"type":"VEC3"
		},
		{
			"bufferView":18,
			"componentType":5126,
			"count":221,
			"type":"VEC2"
		},
		{
			"bufferView":19,
			"componentType":5123,
			"count":564,
			"type":"SCALAR"
		},
		{
			"bufferView":20,
			"componentType":5126,
			"count":105,
			"max":[
				0.016412679105997086,
				0.010494427755475044,
				0.020439432933926582
			],
			"min":[
				-0.01641327142715454,
				0.002113950438797474,
				-0.011455221101641655
			],
			"type":"VEC3"
		},
		{
			"bufferView":21,
			"componentType":5126,
			"count":105,
			"type":"VEC3"
		},
		{
			"bufferView":22,
			"componentType":5126,
			"count":105,
			"type":"VEC2"
		},
		{
			"bufferView":23,
			"componentType":5123,
			"count":288,
			"type":"SCALAR"
		},
		{
			"bufferView":24,
			"componentType":5126,
			"count":24,
			"max":[
				0.019999999552965164,
				0.009999999776482582,
				0.019999999552965164
			],
			"min":[
				-0.019999999552965164,
				-2.98023217215615e-10,
				-0.019999999552965164
			],
			"type":"VEC3"
		},
		{
			"bufferView":25,
			"componentType":5126,
			"count":24,
			"type":"VEC3"
		},
		{
			"bufferView":26,
			"componentType":5126,
			"count":24,
			"type":"VEC2"
		},
		{
			"bufferView":27,
			"componentType":5123,
			"count":36,
			"type":"SCALAR"
		}
	],
	"bufferViews":[
		{
			"buffer":0,
			"byteLength":696,
			"byteOffset":0,
			"target":34962
		},
		{
			"buffer":0,
			"byteLength":696,
			"byteOffset":696,
			"target":34962
		},
		{
			"buffer":0,
			"byteLength":464,
			"byteOffset":1392,
			"target":34962
		},
		{
			"buffer":0,
			"byteLength":264,
			"byteOffset":1856,
			"target":34963
		},
		{
			"buffer":0,
			"byteLength":2940,
			"byteOffset":2120,
			"target":34962
		},
		{
			"buffer":0,
			"byteLength":2940,
			"byteOffset":5060,
			"target":34962
		},
		{
			"buffer":0,
			"byteLength":1960,
			"byteOffset":8000,
			"target":34962
		},
		{
			"buffer":0,
			"byteLength":2280,
			"byteOffset":9960,
			"target":34963
		},
		{
			"buffer":0,
			"byteLength":14064,
			"byteOffset":12240,
			"target":34962
		},
		{
			"buffer":0,
			"byteLength":14064,
			"byteOffset":26304,
			"target":34962
		},
		{
			"buffer":0,
			"byteLength":9376,
			"byteOffset":40368,
			"target":34962
		},
		{
			"buffer":0,
			"byteLength":5364,
			"byteOffset":49744,
			"target":34963
		},
		{
			"buffer":0,
			"byteLength":2592,
			"byteOffset":55108,
			"target":34962
		},
		{
			"buffer":0,
			"byteLength":2592,
			"byteOffset":57700,
			"target":34962
		},
		{
			"buffer":0,
			"byteLength":1728,
			"byteOffset":60292,
			"target":34962
		},
		{
			"buffer":0,
			"byteLength":1956,
			"byteOffset":62020,
			"target":34963
		},
		{
			"buffer":0,
			"byteLength":2652,
			"byteOffset":63976,
			"target":34962
		},
		{
			"buffer":0,
			"byteLength":2652,
			"byteOffset":66628,
			"target":34962
		},
		{
			"buffer":0,
			"byteLength":1768,
			"byteOffset":69280,
			"target":34962
		},
		{
			"buffer":0,
			"byteLength":1128,
			"byteOffset":71048,
			"target":34963
		},
		{
			"buffer":0,
			"byteLength":1260,
			"byteOffset":72176,
			"target":34962
		},
		{
			"buffer":0,
			"byteLength":1260,
			"byteOffset":73436,
			"target":34962
		},
		{
			"buffer":0,
			"byteLength":840,
			"byteOffset":74696,
			"target":34962
		},
		{
			"buffer":0,
			"byteLength":576,
			"byteOffset":75536,
			"target":34963
		},
		{
			"buffer":0,
			"byteLength":288,
			"byteOffset":76112,
			"target":34962
		},
		{
			"buffer":0,
			"byteLength":288,
			"byteOffset":76400,
			"target":34962
		},
		{
			"buffer":0,
			"byteLength":192,
			"byteOffset":76688,
			"target":34962
		},
		{
			"buffer":0,
			"byteLength":72,
			"byteOffset":76880,
			"target":34963
		}
	],
	"buffers":[
		{
			"byteLength":76952,
			"uri":"ProKit.bin"
		}
	]
}
