{
	"asset":{
		"generator":"Khronos glTF Blender I/O v4.0.44",
		"version":"2.0"
	},
	"extensionsUsed":[
		"KHR_materials_specular",
		"KHR_materials_ior"
	],
	"scene":0,
	"scenes":[
		{
			"name":"Scene",
			"nodes":[
				0,
				1,
				2,
				3
			]
		}
	],
	"nodes":[
		{
			"mesh":0,
			"name":"Empty"
		},
		{
			"mesh":1,
			"name":"Corner"
		},
		{
			"mesh":2,
			"name":"MomentaryButton"
		},
		{
			"mesh":3,
			"name":"ToggleButton"
		}
	],
	"materials":[
		{
			"extensions":{
				"KHR_materials_specular":{
					"specularColorFactor":[
						1.4494845867156982,
						1.4494845867156982,
						1.4494845867156982
					]
				},
				"KHR_materials_ior":{
					"ior":1.4500000476837158
				}
			},
			"name":"ProtoKit_Tiles",
			"pbrMetallicRoughness":{
				"baseColorFactor":[
					0.800000011920929,
					0.800000011920929,
					0.800000011920929,
					1
				],
				"metallicFactor":0.75
			}
		}
	],
	"meshes":[
		{
			"name":"Cube.001",
			"primitives":[
				{
					"attributes":{
						"POSITION":0,
						"NORMAL":1,
						"TEXCOORD_0":2
					},
					"indices":3,
					"material":0
				}
			]
		},
		{
			"name":"Cube",
			"primitives":[
				{
					"attributes":{
						"POSITION":4,
						"NORMAL":5,
						"TEXCOORD_0":6
					},
					"indices":7,
					"material":0
				}
			]
		},
		{
			"name":"Cube.002",
			"primitives":[
				{
					"attributes":{
						"POSITION":8,
						"NORMAL":9,
						"TEXCOORD_0":10
					},
					"indices":11,
					"material":0
				}
			]
		},
		{
			"name":"Cube.004",
			"primitives":[
				{
					"attributes":{
						"POSITION":12,
						"NORMAL":13,
						"TEXCOORD_0":14
					},
					"indices":15,
					"material":0
				}
			]
		}
	],
	"accessors":[
		{
			"bufferView":0,
			"componentType":5126,
			"count":60,
			"max":[
				0.019999999552965164,
				0.010000000707805157,
				0.019999999552965164
			],
			"min":[
				-0.019999999552965164,
				-8.742277457507441e-10,
				-0.019999999552965164
			],
			"type":"VEC3"
		},
		{
			"bufferView":1,
			"componentType":5126,
			"count":60,
			"type":"VEC3"
		},
		{
			"bufferView":2,
			"componentType":5126,
			"count":60,
			"type":"VEC2"
		},
		{
			"bufferView":3,
			"componentType":5123,
			"count":108,
			"type":"SCALAR"
		},
		{
			"bufferView":4,
			"componentType":5126,
			"count":229,
			"max":[
				0.019999999552965164,
				0.010000000707805157,
				0.019999999552965164
			],
			"min":[
				-0.019999999552965164,
				-8.65485461076787e-10,
				-0.019999999552965164
			],
			"type":"VEC3"
		},
		{
			"bufferView":5,
			"componentType":5126,
			"count":229,
			"type":"VEC3"
		},
		{
			"bufferView":6,
			"componentType":5126,
			"count":229,
			"type":"VEC2"
		},
		{
			"bufferView":7,
			"componentType":5123,
			"count":912,
			"type":"SCALAR"
		},
		{
			"bufferView":8,
			"componentType":5126,
			"count":1172,
			"max":[
				0.019999999552965164,
				0.010000007227063179,
				0.019999999552965164
			],
			"min":[
				-0.020000003278255463,
				-7.393485823570245e-09,
				-0.019999999552965164
			],
			"type":"VEC3"
		},
		{
			"bufferView":9,
			"componentType":5126,
			"count":1172,
			"type":"VEC3"
		},
		{
			"bufferView":10,
			"componentType":5126,
			"count":1172,
			"type":"VEC2"
		},
		{
			"bufferView":11,
			"componentType":5123,
			"count":2682,
			"type":"SCALAR"
		},
		{
			"bufferView":12,
			"componentType":5126,
			"count":256,
			"max":[
				0.019999999552965164,
				0.009999999776482582,
				0.019999999552965164
			],
			"min":[
				-0.019999999552965164,
				0,
				-0.019999999552965164
			],
			"type":"VEC3"
		},
		{
			"bufferView":13,
			"componentType":5126,
			"count":256,
			"type":"VEC3"
		},
		{
			"bufferView":14,
			"componentType":5126,
			"count":256,
			"type":"VEC2"
		},
		{
			"bufferView":15,
			"componentType":5123,
			"count":1056,
			"type":"SCALAR"
		}
	],
	"bufferViews":[
		{
			"buffer":0,
			"byteLength":720,
			"byteOffset":0,
			"target":34962
		},
		{
			"buffer":0,
			"byteLength":720,
			"byteOffset":720,
			"target":34962
		},
		{
			"buffer":0,
			"byteLength":480,
			"byteOffset":1440,
			"target":34962
		},
		{
			"buffer":0,
			"byteLength":216,
			"byteOffset":1920,
			"target":34963
		},
		{
			"buffer":0,
			"byteLength":2748,
			"byteOffset":2136,
			"target":34962
		},
		{
			"buffer":0,
			"byteLength":2748,
			"byteOffset":4884,
			"target":34962
		},
		{
			"buffer":0,
			"byteLength":1832,
			"byteOffset":7632,
			"target":34962
		},
		{
			"buffer":0,
			"byteLength":1824,
			"byteOffset":9464,
			"target":34963
		},
		{
			"buffer":0,
			"byteLength":14064,
			"byteOffset":11288,
			"target":34962
		},
		{
			"buffer":0,
			"byteLength":14064,
			"byteOffset":25352,
			"target":34962
		},
		{
			"buffer":0,
			"byteLength":9376,
			"byteOffset":39416,
			"target":34962
		},
		{
			"buffer":0,
			"byteLength":5364,
			"byteOffset":48792,
			"target":34963
		},
		{
			"buffer":0,
			"byteLength":3072,
			"byteOffset":54156,
			"target":34962
		},
		{
			"buffer":0,
			"byteLength":3072,
			"byteOffset":57228,
			"target":34962
		},
		{
			"buffer":0,
			"byteLength":2048,
			"byteOffset":60300,
			"target":34962
		},
		{
			"buffer":0,
			"byteLength":2112,
			"byteOffset":62348,
			"target":34963
		}
	],
	"buffers":[
		{
			"byteLength":64460,
			"uri":"ProKit.bin"
		}
	]
}
