{
	"asset":{
		"generator":"Khronos glTF Blender I/O v4.0.44",
		"version":"2.0"
	},
	"scene":0,
	"scenes":[
		{
			"name":"Scene",
			"nodes":[
				0,
				1,
				2
			]
		}
	],
	"nodes":[
		{
			"mesh":0,
			"name":"Empty"
		},
		{
			"mesh":1,
			"name":"Corner"
		},
		{
			"mesh":2,
			"name":"Button"
		}
	],
	"materials":[
		{
			"doubleSided":true,
			"name":"ProtoKit_material",
			"pbrMetallicRoughness":{
				"baseColorTexture":{
					"index":0
				},
				"metallicFactor":0,
				"roughnessFactor":0.5
			}
		}
	],
	"meshes":[
		{
			"name":"Cube",
			"primitives":[
				{
					"attributes":{
						"POSITION":0,
						"NORMAL":1,
						"TEXCOORD_0":2
					},
					"indices":3,
					"material":0
				}
			]
		},
		{
			"name":"Cube.001",
			"primitives":[
				{
					"attributes":{
						"POSITION":4,
						"NORMAL":5,
						"TEXCOORD_0":6
					},
					"indices":7,
					"material":0
				}
			]
		},
		{
			"name":"Cube.002",
			"primitives":[
				{
					"attributes":{
						"POSITION":8,
						"NORMAL":9,
						"TEXCOORD_0":10
					},
					"indices":11,
					"material":0
				}
			]
		}
	],
	"textures":[
		{
			"sampler":0,
			"source":0
		}
	],
	"images":[
		{
			"mimeType":"image/png",
			"name":"SkeuomorphicButtons",
			"uri":"SkeuomorphicButtons.png"
		}
	],
	"accessors":[
		{
			"bufferView":0,
			"componentType":5126,
			"count":24,
			"max":[
				0.009999999776482582,
				0.009999999776482582,
				0.004999999888241291
			],
			"min":[
				-0.009999999776482582,
				-0.009999999776482582,
				0
			],
			"type":"VEC3"
		},
		{
			"bufferView":1,
			"componentType":5126,
			"count":24,
			"type":"VEC3"
		},
		{
			"bufferView":2,
			"componentType":5126,
			"count":24,
			"type":"VEC2"
		},
		{
			"bufferView":3,
			"componentType":5123,
			"count":36,
			"type":"SCALAR"
		},
		{
			"bufferView":4,
			"componentType":5126,
			"count":120,
			"max":[
				0.009999999776482582,
				0.009999999776482582,
				0.004999999888241291
			],
			"min":[
				-0.009999999776482582,
				-0.009999999776482582,
				0
			],
			"type":"VEC3"
		},
		{
			"bufferView":5,
			"componentType":5126,
			"count":120,
			"type":"VEC3"
		},
		{
			"bufferView":6,
			"componentType":5126,
			"count":120,
			"type":"VEC2"
		},
		{
			"bufferView":7,
			"componentType":5123,
			"count":228,
			"type":"SCALAR"
		},
		{
			"bufferView":8,
			"componentType":5126,
			"count":218,
			"max":[
				0.009999999776482582,
				0.009999999776482582,
				0.005000003147870302
			],
			"min":[
				-0.010000001639127731,
				-0.009999999776482582,
				-3.259629011154175e-09
			],
			"type":"VEC3"
		},
		{
			"bufferView":9,
			"componentType":5126,
			"count":218,
			"type":"VEC3"
		},
		{
			"bufferView":10,
			"componentType":5126,
			"count":218,
			"type":"VEC2"
		},
		{
			"bufferView":11,
			"componentType":5123,
			"count":612,
			"type":"SCALAR"
		}
	],
	"bufferViews":[
		{
			"buffer":0,
			"byteLength":288,
			"byteOffset":0,
			"target":34962
		},
		{
			"buffer":0,
			"byteLength":288,
			"byteOffset":288,
			"target":34962
		},
		{
			"buffer":0,
			"byteLength":192,
			"byteOffset":576,
			"target":34962
		},
		{
			"buffer":0,
			"byteLength":72,
			"byteOffset":768,
			"target":34963
		},
		{
			"buffer":0,
			"byteLength":1440,
			"byteOffset":840,
			"target":34962
		},
		{
			"buffer":0,
			"byteLength":1440,
			"byteOffset":2280,
			"target":34962
		},
		{
			"buffer":0,
			"byteLength":960,
			"byteOffset":3720,
			"target":34962
		},
		{
			"buffer":0,
			"byteLength":456,
			"byteOffset":4680,
			"target":34963
		},
		{
			"buffer":0,
			"byteLength":2616,
			"byteOffset":5136,
			"target":34962
		},
		{
			"buffer":0,
			"byteLength":2616,
			"byteOffset":7752,
			"target":34962
		},
		{
			"buffer":0,
			"byteLength":1744,
			"byteOffset":10368,
			"target":34962
		},
		{
			"buffer":0,
			"byteLength":1224,
			"byteOffset":12112,
			"target":34963
		}
	],
	"samplers":[
		{
			"magFilter":9729,
			"minFilter":9987
		}
	],
	"buffers":[
		{
			"byteLength":13336,
			"uri":"protoKit_v001.bin"
		}
	]
}
