{
	"asset":{
		"generator":"Khronos glTF Blender I/O v4.0.44",
		"version":"2.0"
	},
	"extensionsUsed":[
		"KHR_materials_specular",
		"KHR_materials_ior"
	],
	"scene":0,
	"scenes":[
		{
			"name":"Scene",
			"nodes":[
				0,
				1,
				2
			]
		}
	],
	"nodes":[
		{
			"mesh":0,
			"name":"Empty"
		},
		{
			"mesh":1,
			"name":"Corner"
		},
		{
			"mesh":2,
			"name":"Button"
		}
	],
	"materials":[
		{
			"doubleSided":true,
			"extensions":{
				"KHR_materials_specular":{
					"specularColorFactor":[
						1.4494845867156982,
						1.4494845867156982,
						1.4494845867156982
					]
				},
				"KHR_materials_ior":{
					"ior":1.4500000476837158
				}
			},
			"name":"ProtoKit_material",
			"pbrMetallicRoughness":{
				"baseColorFactor":[
					0.42868494987487793,
					0.42868494987487793,
					0.42868494987487793,
					1
				],
				"metallicFactor":0
			}
		}
	],
	"meshes":[
		{
			"name":"Cube",
			"primitives":[
				{
					"attributes":{
						"POSITION":0,
						"NORMAL":1,
						"TEXCOORD_0":2
					},
					"indices":3,
					"material":0
				}
			]
		},
		{
			"name":"Cube.001",
			"primitives":[
				{
					"attributes":{
						"POSITION":4,
						"NORMAL":5,
						"TEXCOORD_0":6
					},
					"indices":7,
					"material":0
				}
			]
		},
		{
			"name":"Cube.002",
			"primitives":[
				{
					"attributes":{
						"POSITION":8,
						"NORMAL":9,
						"TEXCOORD_0":10
					},
					"indices":11,
					"material":0
				}
			]
		}
	],
	"accessors":[
		{
			"bufferView":0,
			"componentType":5126,
			"count":42,
			"max":[
				0.019999999552965164,
				0.010000000707805157,
				0.019999999552965164
			],
			"min":[
				-0.019999999552965164,
				-8.742277457507441e-10,
				-0.019999999552965164
			],
			"type":"VEC3"
		},
		{
			"bufferView":1,
			"componentType":5126,
			"count":42,
			"type":"VEC3"
		},
		{
			"bufferView":2,
			"componentType":5126,
			"count":42,
			"type":"VEC2"
		},
		{
			"bufferView":3,
			"componentType":5123,
			"count":72,
			"type":"SCALAR"
		},
		{
			"bufferView":4,
			"componentType":5126,
			"count":539,
			"max":[
				0.019999999552965164,
				0.010000000707805157,
				0.019999999552965164
			],
			"min":[
				-0.019999999552965164,
				-8.65485461076787e-10,
				-0.019999999552965164
			],
			"type":"VEC3"
		},
		{
			"bufferView":5,
			"componentType":5126,
			"count":539,
			"type":"VEC3"
		},
		{
			"bufferView":6,
			"componentType":5126,
			"count":539,
			"type":"VEC2"
		},
		{
			"bufferView":7,
			"componentType":5123,
			"count":912,
			"type":"SCALAR"
		},
		{
			"bufferView":8,
			"componentType":5126,
			"count":645,
			"max":[
				0.019999999552965164,
				0.010000007227063179,
				0.019999999552965164
			],
			"min":[
				-0.020000003278255463,
				-7.393485823570245e-09,
				-0.019999999552965164
			],
			"type":"VEC3"
		},
		{
			"bufferView":9,
			"componentType":5126,
			"count":645,
			"type":"VEC3"
		},
		{
			"bufferView":10,
			"componentType":5126,
			"count":645,
			"type":"VEC2"
		},
		{
			"bufferView":11,
			"componentType":5123,
			"count":1674,
			"type":"SCALAR"
		}
	],
	"bufferViews":[
		{
			"buffer":0,
			"byteLength":504,
			"byteOffset":0,
			"target":34962
		},
		{
			"buffer":0,
			"byteLength":504,
			"byteOffset":504,
			"target":34962
		},
		{
			"buffer":0,
			"byteLength":336,
			"byteOffset":1008,
			"target":34962
		},
		{
			"buffer":0,
			"byteLength":144,
			"byteOffset":1344,
			"target":34963
		},
		{
			"buffer":0,
			"byteLength":6468,
			"byteOffset":1488,
			"target":34962
		},
		{
			"buffer":0,
			"byteLength":6468,
			"byteOffset":7956,
			"target":34962
		},
		{
			"buffer":0,
			"byteLength":4312,
			"byteOffset":14424,
			"target":34962
		},
		{
			"buffer":0,
			"byteLength":1824,
			"byteOffset":18736,
			"target":34963
		},
		{
			"buffer":0,
			"byteLength":7740,
			"byteOffset":20560,
			"target":34962
		},
		{
			"buffer":0,
			"byteLength":7740,
			"byteOffset":28300,
			"target":34962
		},
		{
			"buffer":0,
			"byteLength":5160,
			"byteOffset":36040,
			"target":34962
		},
		{
			"buffer":0,
			"byteLength":3348,
			"byteOffset":41200,
			"target":34963
		}
	],
	"buffers":[
		{
			"byteLength":44548,
			"uri":"protoKit_v001.bin"
		}
	]
}
